<svg width="307" height="78" viewBox="0 0 307 78" fill="none" xmlns="http://www.w3.org/2000/svg">
<circle cx="39" cy="39" r="35" stroke="#FF7D1F" stroke-width="8"/>
<path d="M37.432 51.704L14.488 41.432V35.048L37.432 24.824V32.024L22.696 38.216L37.432 44.456V51.704ZM40.4099 51.704V44.456L55.0979 38.216L40.4099 32.024V24.824L63.3539 35.048V41.432L40.4099 51.704Z" fill="#FF7D1F"/>
<path d="M93.92 53V22.088H104.24V53H93.92ZM118.972 53L107.116 22.088H117.868L124.348 40.904L130.876 22.088H141.676L129.772 53H118.972ZM153.034 53V41.72L141.898 22.088H152.65L158.218 32.84L163.786 22.088H174.538L163.354 41.72V53H153.034ZM176.444 53V45.704H184.46V53H176.444ZM187.342 53V22.088H196.03L206.206 36.344V22.088H216.526V53H207.742L197.662 38.792V53H187.342ZM231.285 53L219.429 22.088H230.181L236.661 40.904L243.189 22.088H253.989L242.085 53H231.285ZM256.858 53V22.088H267.178V53H256.858ZM271.014 53V22.088H280.902L287.91 36.344L294.822 22.088H304.71V53H294.39V39.848L290.55 47.72H285.174L281.334 39.848V53H271.014Z" fill="#FF7D1F"/>
</svg>
